<?xml version="1.0" standalone="no"?>
<!DOCTYPE svg PUBLIC "-//W3C//DTD SVG 20010904//EN"
 "http://www.w3.org/TR/2001/REC-SVG-20010904/DTD/svg10.dtd">
<svg version="1.0" xmlns="http://www.w3.org/2000/svg"
 width="900.000000pt" height="228.000000pt" viewBox="0 0 900.000000 228.000000"
 preserveAspectRatio="xMidYMid meet">

<g transform="translate(0.000000,228.000000) scale(0.100000,-0.100000)"
fill="#ffffff" stroke="none">
<path d="M1337 1960 c-57 -15 -112 -46 -142 -82 -36 -42 -44 -60 -270 -601
-151 -363 -184 -451 -175 -462 11 -13 80 -15 460 -15 245 0 449 2 452 5 3 3
-18 61 -46 130 l-50 125 -177 0 c-98 0 -180 3 -182 8 -3 4 47 137 111 297 106
262 120 292 151 312 25 17 48 23 88 23 68 0 108 -20 132 -68 10 -20 89 -212
176 -427 86 -214 162 -393 168 -397 7 -4 82 -8 168 -8 119 0 159 3 168 13 8
11 -38 131 -199 518 -121 289 -223 519 -239 539 -15 19 -54 49 -86 65 l-59 30
-205 2 c-113 1 -223 -2 -244 -7z"/>
<path d="M2575 1958 c-3 -7 -4 -269 -3 -583 l3 -570 510 0 c464 0 516 2 575
18 197 56 312 162 364 336 25 86 23 377 -4 464 -50 160 -172 270 -360 323 -58
16 -120 18 -573 21 -413 4 -508 2 -512 -9z m953 -252 c74 -24 135 -85 156
-155 21 -73 22 -258 0 -330 -20 -70 -71 -124 -142 -153 -54 -21 -70 -22 -347
-23 l-290 0 -3 330 c-1 181 0 336 3 343 8 22 550 11 623 -12z"/>
<path d="M4120 1955 c0 -29 296 -752 379 -926 99 -206 162 -234 512 -227 188
4 208 6 257 27 100 45 138 107 292 471 115 271 260 638 260 655 0 13 -24 15
-177 13 l-176 -3 -102 -260 c-160 -407 -225 -555 -261 -595 l-32 -35 -100 0
c-93 0 -102 2 -128 25 -41 38 -102 180 -353 820 l-17 45 -177 3 c-153 2 -177
0 -177 -13z"/>
<path d="M6035 1958 c-3 -7 -4 -269 -3 -583 l3 -570 170 0 170 0 0 580 0 580
-168 3 c-128 2 -169 0 -172 -10z"/>
<path d="M6676 1954 c-8 -20 -8 -1118 0 -1138 5 -14 30 -16 175 -16 l169 0 2
423 3 422 360 -422 360 -422 258 0 257 -1 -2 583 -3 582 -80 3 c-44 2 -122 0
-172 -3 l-93 -7 -2 -423 -3 -423 -325 380 c-179 209 -343 402 -365 429 l-40
49 -246 0 c-216 0 -248 -2 -253 -16z"/>
<path d="M924 572 c-33 -2 -57 -9 -67 -20 -9 -10 -38 -68 -66 -130 l-50 -112
43 0 c43 0 44 1 64 50 l21 50 55 0 c43 0 56 3 56 15 0 11 -12 15 -45 15 -52 0
-57 12 -24 54 15 20 29 26 48 24 21 -2 32 -16 61 -73 19 -38 40 -85 47 -102
10 -30 15 -33 52 -33 26 0 41 4 41 13 -1 6 -27 64 -58 127 -64 129 -64 129
-178 122z"/>
<path d="M1501 571 c-5 -4 -11 -22 -13 -41 l-3 -35 -85 -5 c-47 -3 -91 -9 -97
-13 -8 -5 -13 -32 -13 -72 0 -89 11 -95 158 -95 l113 0 -3 132 c-3 128 -4 131
-25 133 -12 1 -27 -1 -32 -4z m-11 -166 c0 -49 1 -49 -75 -45 -45 2 -65 14
-65 41 0 33 28 49 86 49 l54 0 0 -45z"/>
<path d="M3928 535 l-3 -40 -77 -2 c-111 -2 -118 -8 -118 -94 0 -65 1 -70 26
-79 14 -6 75 -10 135 -10 l109 0 0 130 c0 72 -3 131 -7 131 -55 10 -62 5 -65
-36z m2 -130 l0 -45 -64 0 c-49 0 -65 4 -70 16 -19 49 8 74 80 74 l54 0 0 -45z"/>
<path d="M4373 573 c-10 -4 -13 -39 -13 -134 l0 -129 40 0 41 0 -3 133 -3 132
-25 1 c-14 0 -31 -1 -37 -3z"/>
<path d="M6940 548 c0 -27 3 -29 33 -26 24 2 33 8 35 26 2 12 0 22 -5 23 -61
7 -63 7 -63 -23z"/>
<path d="M6628 518 c-2 -15 -9 -22 -21 -22 -12 1 -17 -5 -17 -22 0 -17 6 -24
20 -24 17 0 20 -7 20 -50 0 -72 21 -90 105 -90 51 0 65 3 65 15 0 8 0 18 0 23
0 4 -21 9 -47 12 l-48 5 -3 43 -3 42 45 0 c39 0 46 3 46 19 0 16 -8 20 -42 23
-36 2 -44 7 -46 26 -3 18 -10 22 -37 22 -27 0 -34 -4 -37 -22z"/>
<path d="M1727 492 c-10 -2 -17 -7 -15 -11 2 -3 23 -43 47 -89 l45 -82 42 0
42 0 46 85 c25 47 46 87 46 90 0 3 -16 5 -35 5 -32 0 -37 -4 -65 -60 -17 -34
-35 -58 -39 -55 -5 3 -19 29 -32 59 -22 54 -40 67 -82 58z"/>
<path d="M2173 492 c-29 -2 -43 -8 -43 -18 0 -11 16 -14 74 -14 50 0 77 -4 85
-14 9 -11 -4 -14 -74 -18 -93 -6 -115 -17 -115 -57 0 -52 10 -56 140 -59 l120
-4 0 80 c0 51 -4 83 -12 90 -14 11 -109 19 -175 14z m125 -119 c-2 -14 -15
-19 -57 -21 -30 -2 -58 1 -64 7 -19 19 5 31 64 31 52 0 60 -2 57 -17z"/>
<path d="M2526 492 c-13 -3 -16 -18 -16 -93 l0 -89 35 0 35 0 0 65 0 66 58 -3
57 -3 3 -62 3 -63 34 0 35 0 0 74 c0 56 -4 77 -16 87 -16 13 -188 29 -228 21z"/>
<path d="M2985 490 c-61 -8 -65 -14 -65 -85 0 -88 11 -95 152 -95 l108 0 0 25
c0 25 0 25 -95 25 -94 0 -95 0 -101 27 -12 48 4 58 105 61 86 3 91 4 91 25 0
21 -4 22 -77 22 -43 0 -96 -2 -118 -5z"/>
<path d="M4990 492 c-6 -2 -10 -43 -10 -93 l0 -89 35 0 35 0 0 65 0 65 55 0
c65 0 79 -17 73 -86 -3 -44 -3 -44 29 -44 l33 0 0 73 c0 100 -6 104 -138 109
-56 1 -107 2 -112 0z"/>
<path d="M5795 491 c-3 -2 17 -44 43 -93 l47 -89 43 3 43 3 49 90 49 90 -41
-3 c-38 -4 -41 -7 -67 -63 -14 -32 -29 -58 -33 -59 -4 0 -19 27 -33 59 -24 53
-30 59 -61 63 -19 2 -37 2 -39 -1z"/>
<path d="M6206 483 c-8 -19 5 -23 79 -23 52 0 76 -4 85 -15 11 -13 4 -15 -51
-16 -35 0 -80 -5 -99 -12 -29 -10 -36 -18 -38 -44 -5 -52 22 -63 156 -63 l114
0 -4 75 c-5 102 -10 106 -136 108 -69 1 -103 -2 -106 -10z m172 -110 c-2 -14
-15 -19 -57 -21 -30 -2 -58 1 -64 7 -19 19 5 31 64 31 52 0 60 -2 57 -17z"/>
<path d="M6940 403 l0 -93 35 0 35 0 0 89 0 89 -35 4 -35 4 0 -93z"/>
<path d="M8100 492 c-91 -3 -120 -17 -120 -57 0 -37 26 -48 116 -53 62 -3 84
-8 84 -18 0 -11 -22 -14 -100 -14 -95 0 -100 -1 -100 -21 0 -20 4 -21 125 -17
136 3 145 7 145 59 0 39 -16 47 -113 55 -115 9 -112 28 6 32 65 2 87 6 87 16
0 18 -27 22 -130 18z"/>
<path d="M3347 472 c-12 -13 -17 -37 -17 -75 0 -78 15 -87 142 -87 91 0 98 1
98 20 0 18 -7 20 -78 20 -72 0 -102 9 -102 32 0 4 43 8 95 8 l95 0 0 34 c0 53
-27 66 -131 66 -71 0 -89 -3 -102 -18z m163 -31 c0 -5 -25 -11 -56 -13 -54 -3
-71 2 -57 16 10 10 113 7 113 -3z"/>
<path d="M4570 400 l0 -90 35 0 35 0 0 65 0 65 59 0 c67 0 71 -4 71 -81 l0
-49 36 0 36 0 -4 76 c-5 101 -9 104 -155 104 l-113 0 0 -90z"/>
<path d="M5407 472 c-21 -23 -23 -110 -3 -138 12 -16 29 -20 113 -22 87 -3
102 -1 123 16 21 17 25 29 25 77 0 78 -11 85 -140 85 -86 0 -104 -3 -118 -18z
m186 -43 c5 -9 7 -28 3 -43 -6 -26 -9 -27 -69 -24 l-62 3 -3 34 c-2 20 2 37
10 43 22 14 110 5 121 -13z"/>
<path d="M7170 470 c-14 -14 -20 -33 -20 -68 0 -78 12 -86 129 -90 97 -4 101
-3 127 23 23 24 26 32 22 77 -7 71 -20 78 -140 78 -85 0 -101 -3 -118 -20z
m183 -41 c5 -9 7 -28 3 -43 -6 -26 -9 -27 -69 -24 -60 3 -62 4 -65 31 -5 44
14 58 71 55 32 -2 53 -9 60 -19z"/>
<path d="M7570 400 l0 -90 35 0 35 0 0 65 0 65 55 0 c64 0 75 -13 75 -84 0
-44 1 -46 30 -46 l30 0 0 73 c0 103 -6 107 -148 107 l-112 0 0 -90z"/>
</g>
</svg>
